<svg id="Layer_1" data-name="Layer 1" xmlns="http://www.w3.org/2000/svg" viewBox="0 0 101.7 97.5"><defs><style>.cls-1{fill:#64b5f6;}.cls-2{fill:#eee;}.cls-3{fill:#e0e0e0;}.cls-4{fill:#42a5f5;}.cls-5{fill:#ffb74d;}.cls-6{fill:#ffa726;}.cls-7{stroke:#000;stroke-miterlimit:10;stroke-width:0.5px;}</style></defs><polygon class="cls-1" points="56.6 33.2 99.1 34.3 99.1 95.5 56.6 96.9 56.6 33.2"/><polygon class="cls-2" points="44.9 0.4 7.3 0.4 0.3 5.9 1.4 86.8 9.2 89.1 55.2 86.2 57.1 33.4 61.2 33.4 61.2 16.1 44.9 0.4"/><polygon class="cls-3" points="57 18.9 57 33.2 61.4 33.2 62.2 18.1 57 18.9"/><polygon class="cls-3" points="46.1 7 55.4 16 58.6 16.2 47 4.5 46.1 7"/><path class="cls-4" d="M581,526.2s4,1.2,4,6.3v53.7h4.9V530.6S589,522.3,581,526.2Z" transform="translate(-489.5 -491.1)"/><polygon class="cls-5" points="65.8 44.3 65.8 53.7 90.3 56 89.9 41.9 65.8 44.3"/><path class="cls-6" d="M573.5,535.1a4.4,4.4,0,0,1,2.8,4.4v6.2h3.3v-7.5S579,532.5,573.5,535.1Z" transform="translate(-489.5 -491.1)"/><path class="cls-7" d="M544.7,580.3H495.6a5.9,5.9,0,0,1-5.8-5.9v-77a5.8,5.8,0,0,1,5.8-5.8h40.8l15.8,15.6h-.1v17.5h-2.9V510H535.7a2.4,2.4,0,0,1-2.3-2.3V494.5H495.6a2.9,2.9,0,0,0-2.9,2.9v77a3,3,0,0,0,2.9,3h49.1Zm-8.4-84.8v11.7h11.8Z" transform="translate(-489.5 -491.1)"/><path class="cls-7" d="M586.9,588.4H547.6a4,4,0,0,1-4-4V527a4,4,0,0,1,4-3.9h39.3a4,4,0,0,1,4,3.9v57.4A4,4,0,0,1,586.9,588.4ZM547.6,526a1,1,0,0,0-1.1,1v57.4a1.1,1.1,0,0,0,1.1,1.1h39.3a1.1,1.1,0,0,0,1.1-1.1V527a1,1,0,0,0-1.1-1Z" transform="translate(-489.5 -491.1)"/><path class="cls-7" d="M579,547.3H555.5a2,2,0,0,1-2-2V535a2,2,0,0,1,2-2H579a2,2,0,0,1,2,2v10.3A2,2,0,0,1,579,547.3Zm-23.1-2.4h22.7v-9.5H555.9Z" transform="translate(-489.5 -491.1)"/><rect class="cls-7" x="63.9" y="66.4" width="10.6" height="2.74"/><rect class="cls-7" x="80.9" y="66.4" width="10.6" height="2.74"/><rect class="cls-7" x="63.9" y="79.2" width="10.6" height="2.74"/><rect class="cls-7" x="80.9" y="79.2" width="10.6" height="2.74"/><rect class="cls-7" x="18.5" y="27.1" width="24.3" height="2.67"/><path class="cls-7" d="M524.8,557.8l-15.6-20.3,1-2.2q12.8,0,12.9-6.9c.1-6.5-5.3-7.4-5.5-7.5l.4-2.6c2.8.4,7.9,3.1,7.8,10.2-.1,4-2.5,8.7-12.9,9.4l14,18.2Z" transform="translate(-489.5 -491.1)"/><rect class="cls-7" x="19.7" y="35.6" width="23.1" height="2.67"/></svg>