<svg id="Layer_1" data-name="Layer 1" xmlns="http://www.w3.org/2000/svg" viewBox="0 0 102.2 101.5"><defs><style>.cls-1{fill:#64b5f6;}.cls-2{fill:#42a5f5;}.cls-3{fill:#eee;}.cls-4{fill:#e0e0e0;}.cls-5{fill:#ffb74d;}.cls-6{fill:#ffa726;}.cls-7{stroke:#000;stroke-miterlimit:10;stroke-width:0.5px;}</style></defs><polygon class="cls-1" points="1.8 23.2 94.8 21.9 94.8 7.8 82.4 4.9 3.2 6.3 1.8 23.2"/><path class="cls-2" d="M575.1,496.9s4,1.2,4,6.3v9.2H584V501.3S583.1,493.1,575.1,496.9Z" transform="translate(-489.2 -489.2)"/><path class="cls-3" d="M1.8,22.4H93.3a0,0,0,0,1,0,0V94.6a0,0,0,0,1,0,0H6.7a4.9,4.9,0,0,1-4.9-4.9V22.4A0,0,0,0,1,1.8,22.4Z"/><path class="cls-4" d="M579.1,511.6V573s.3,9.3-4.5,10.8h7.5l1.5-5.5V510.2Z" transform="translate(-489.2 -489.2)"/><rect class="cls-5" x="58" y="35.9" width="15.6" height="13.45"/><path class="cls-6" d="M557.6,525.6a3.6,3.6,0,0,1,2.3,3.6v9.2h2.2l.7-11S562.2,523.4,557.6,525.6Z" transform="translate(-489.2 -489.2)"/><rect class="cls-5" x="24.6" y="35.9" width="15.6" height="13.45"/><path class="cls-6" d="M524.3,525.6a3.6,3.6,0,0,1,2.3,3.6v9.2h2.2l.6-11S528.8,523.5,524.3,525.6Z" transform="translate(-489.2 -489.2)"/><rect class="cls-5" x="24.6" y="64.5" width="15.6" height="13.45"/><path class="cls-6" d="M524.3,554.2a3.6,3.6,0,0,1,2.3,3.6V567h2.2l.6-11S528.8,552,524.3,554.2Z" transform="translate(-489.2 -489.2)"/><circle class="cls-1" cx="79.5" cy="78.9" r="22.4"/><path class="cls-2" d="M568.7,590.5a22.5,22.5,0,1,0,0-44.9s14.4,9.8,14.9,21.4C584.2,582.5,568.7,590.5,568.7,590.5Z" transform="translate(-489.2 -489.2)"/><path class="cls-7" d="M553.9,584.5H496.5a6.9,6.9,0,0,1-7-6.9V501.3a6.9,6.9,0,0,1,7-6.9h82.1a6.9,6.9,0,0,1,6.9,6.9v52.5h-2.8V501.3a4.1,4.1,0,0,0-4.1-4H496.5a4,4,0,0,0-4.1,4v76.3a4.1,4.1,0,0,0,4.1,4.1h57.4Z" transform="translate(-489.2 -489.2)"/><rect class="cls-7" x="1.7" y="20.5" width="93.3" height="2.84"/><path class="cls-7" d="M527.6,569.4H516.8a3.8,3.8,0,0,1-3.8-3.7V555a3.8,3.8,0,0,1,3.8-3.7h10.8a3.7,3.7,0,0,1,3.7,3.7v10.7A3.7,3.7,0,0,1,527.6,569.4ZM516.8,554a1,1,0,0,0-1.1,1v10.7a1.1,1.1,0,0,0,1.1,1.1h10.8a1.1,1.1,0,0,0,1.1-1.1V555a1,1,0,0,0-1.1-1Z" transform="translate(-489.2 -489.2)"/><path class="cls-7" d="M527.8,541H516.6a3.6,3.6,0,0,1-3.6-3.5V526.4a3.6,3.6,0,0,1,3.6-3.5h11.2a3.6,3.6,0,0,1,3.6,3.5v11.1A3.6,3.6,0,0,1,527.8,541Zm-11.2-15.6a1.1,1.1,0,0,0-1,1v11.1a1.1,1.1,0,0,0,1,1h11.2a1.1,1.1,0,0,0,1.1-1V526.4a1.1,1.1,0,0,0-1.1-1Z" transform="translate(-489.2 -489.2)"/><path class="cls-7" d="M561.1,541H549.9a3.6,3.6,0,0,1-3.6-3.5V526.4a3.6,3.6,0,0,1,3.6-3.5h11.2a3.6,3.6,0,0,1,3.6,3.5v11.1A3.6,3.6,0,0,1,561.1,541Zm-11.2-15.6a1,1,0,0,0-1,1v11.1a1,1,0,0,0,1,1h11.2a1,1,0,0,0,1-1V526.4a1,1,0,0,0-1-1Z" transform="translate(-489.2 -489.2)"/><rect class="cls-7" x="11.5" y="0.3" width="2" height="13.18"/><rect class="cls-7" x="23.1" y="0.3" width="2" height="13.18"/><rect class="cls-7" x="34.8" y="0.3" width="2" height="13.18"/><rect class="cls-7" x="46.5" y="0.3" width="2" height="13.18"/><rect class="cls-7" x="58.2" y="0.3" width="2" height="13.18"/><rect class="cls-7" x="69.8" y="0.3" width="2" height="13.18"/><rect class="cls-7" x="81.5" y="0.3" width="2" height="13.18"/><path class="cls-7" d="M568.2,590.4a22.8,22.8,0,1,1,23-22.8A22.9,22.9,0,0,1,568.2,590.4Zm0-42.7a19.9,19.9,0,1,0,20.1,19.9A20.1,20.1,0,0,0,568.2,547.7Z" transform="translate(-489.2 -489.2)"/><path class="cls-7" d="M569.6,569.1H558.7a1.5,1.5,0,0,1-1.4-1.5,1.4,1.4,0,0,1,1.4-1.4h8.1v-12a1.4,1.4,0,1,1,2.8,0Z" transform="translate(-489.2 -489.2)"/></svg>