<svg id="Layer_1" data-name="Layer 1" xmlns="http://www.w3.org/2000/svg" viewBox="0 0 102.2 101.5"><defs><style>.cls-1{fill:#64b5f6;}.cls-2{fill:#42a5f5;}.cls-3{fill:#eee;}.cls-4{fill:#e0e0e0;}.cls-5{fill:#ffb74d;}.cls-6{fill:#ffa726;}.cls-7{stroke:#000;stroke-miterlimit:10;stroke-width:0.5px;}</style></defs><polygon class="cls-1" points="1.8 24.9 99.8 24.9 99.4 9 86.4 6.1 3.2 7.5 1.8 24.9"/><path class="cls-2" d="M579.5,498.2s4.1,1.2,4.1,6.5v9.4h5.1V502.7S587.7,494.3,579.5,498.2Z" transform="translate(-489.3 -489.2)"/><path class="cls-3" d="M.3,24.1H97.9a0,0,0,0,1,0,0V98.3a0,0,0,0,1,0,0H5.2A4.9,4.9,0,0,1,.3,93.3V24.1A0,0,0,0,1,.3,24.1Z"/><path class="cls-4" d="M583.6,513.3v63s.4,9.6-4.6,11.1h7.7l1.5-5.6V514.1Z" transform="translate(-489.3 -489.2)"/><rect class="cls-5" x="59" y="40.8" width="17.5" height="15.13"/><path class="cls-6" d="M560.1,530.6a3.9,3.9,0,0,1,2.5,4V545h2.5l.7-12.4S565.2,528.1,560.1,530.6Z" transform="translate(-489.3 -489.2)"/><rect class="cls-5" x="23.2" y="40.8" width="17.5" height="15.13"/><path class="cls-6" d="M524.2,530.6a3.9,3.9,0,0,1,2.5,4V545h2.5l.8-12.4S529.3,528.1,524.2,530.6Z" transform="translate(-489.3 -489.2)"/><rect class="cls-5" x="23.2" y="70.1" width="17.5" height="15.13"/><path class="cls-6" d="M524.2,559.8a4.1,4.1,0,0,1,2.5,4.1v10.3h2.5l.8-12.4S529.3,557.4,524.2,559.8Z" transform="translate(-489.3 -489.2)"/><rect class="cls-5" x="59" y="70.1" width="17.5" height="15.13"/><path class="cls-6" d="M560.1,559.8a4.1,4.1,0,0,1,2.5,4.1v10.3h2.5l.7-12.4S565.2,557.4,560.1,559.8Z" transform="translate(-489.3 -489.2)"/><path class="cls-7" d="M583.8,590.4H496.9a7.4,7.4,0,0,1-7.4-7.4V502.1a7.4,7.4,0,0,1,7.4-7.3h86.9a7.4,7.4,0,0,1,7.4,7.3V583A7.4,7.4,0,0,1,583.8,590.4Zm-86.9-92.6a4.3,4.3,0,0,0-4.3,4.3V583a4.4,4.4,0,0,0,4.3,4.4h86.9a4.4,4.4,0,0,0,4.3-4.4V502.1a4.3,4.3,0,0,0-4.3-4.3Z" transform="translate(-489.3 -489.2)"/><rect class="cls-7" x="1.8" y="24.1" width="98.7" height="3.04"/><path class="cls-7" d="M528,576.9H516.3a4.3,4.3,0,0,1-4.3-4.3V560.9a4.3,4.3,0,0,1,4.3-4.3H528a4.3,4.3,0,0,1,4.3,4.3v11.7A4.3,4.3,0,0,1,528,576.9Zm-11.7-17.3a1.2,1.2,0,0,0-1.2,1.3v11.7a1.2,1.2,0,0,0,1.2,1.2H528a1.2,1.2,0,0,0,1.3-1.2V560.9a1.3,1.3,0,0,0-1.3-1.3Z" transform="translate(-489.3 -489.2)"/><path class="cls-7" d="M563.8,576.9H552.1a4.3,4.3,0,0,1-4.3-4.3V560.9a4.3,4.3,0,0,1,4.3-4.3h11.7a4.3,4.3,0,0,1,4.3,4.3v11.7A4.3,4.3,0,0,1,563.8,576.9Zm-11.7-17.3a1.3,1.3,0,0,0-1.3,1.3v11.7a1.2,1.2,0,0,0,1.3,1.2h11.7a1.2,1.2,0,0,0,1.2-1.2V560.9a1.2,1.2,0,0,0-1.2-1.3Z" transform="translate(-489.3 -489.2)"/><path class="cls-7" d="M564,547.6H552.2a4.3,4.3,0,0,1-4.3-4.3V531.6a4.3,4.3,0,0,1,4.3-4.3H564a4.2,4.2,0,0,1,4.2,4.3v11.7A4.2,4.2,0,0,1,564,547.6Zm-11.8-17.3a1.2,1.2,0,0,0-1.2,1.3v11.7a1.2,1.2,0,0,0,1.2,1.2H564a1.2,1.2,0,0,0,1.2-1.2V531.6a1.3,1.3,0,0,0-1.2-1.3Z" transform="translate(-489.3 -489.2)"/><path class="cls-7" d="M528,547.5H516.2a4.2,4.2,0,0,1-4.2-4.3V531.5a4.2,4.2,0,0,1,4.2-4.3H528a4.2,4.2,0,0,1,4.2,4.3v11.7A4.2,4.2,0,0,1,528,547.5Zm-11.8-17.3a1.3,1.3,0,0,0-1.2,1.3v11.7a1.2,1.2,0,0,0,1.2,1.2H528a1.2,1.2,0,0,0,1.2-1.2V531.5a1.2,1.2,0,0,0-1.2-1.3Z" transform="translate(-489.3 -489.2)"/><rect class="cls-7" x="12.1" y="0.3" width="2.1" height="14.13"/><rect class="cls-7" x="24.5" y="0.3" width="2.1" height="14.13"/><rect class="cls-7" x="36.8" y="0.3" width="2.1" height="14.13"/><rect class="cls-7" x="49.2" y="0.3" width="2.1" height="14.13"/><rect class="cls-7" x="61.5" y="0.3" width="2.1" height="14.13"/><rect class="cls-7" x="73.9" y="0.3" width="2.1" height="14.13"/><rect class="cls-7" x="86.2" y="0.3" width="2.1" height="14.13"/></svg>