<svg id="Layer_1" data-name="Layer 1" xmlns="http://www.w3.org/2000/svg" viewBox="0 0 103.8 98.1"><defs><style>.cls-1{fill:#eee;}.cls-2{fill:#e0e0e0;}.cls-3{fill:#ffb74d;}.cls-4{fill:#ffa726;}.cls-5{fill:#64b5f6;}.cls-6{fill:#42a5f5;}.cls-7{stroke:#000;stroke-miterlimit:10;stroke-width:0.5px;}</style></defs><rect class="cls-1" x="2.5" y="1.9" width="99.6" height="94.53" rx="4.6"/><path class="cls-2" d="M584.7,587.2l-.2-82.4s.3-9.8-4.7-11.3h7.9l1.5,5.7v67.1l.2,20.2Z" transform="translate(-488.4 -490.8)"/><rect class="cls-3" x="15.8" y="13.1" width="34.4" height="28.15"/><path class="cls-4" d="M529.3,505.1s4.5,1.3,4.5,7.1v18.5h4.4V510.1S538.3,500.7,529.3,505.1Z" transform="translate(-488.4 -490.8)"/><circle class="cls-5" cx="55.8" cy="69.7" r="14"/><path class="cls-6" d="M545.5,573.9a13.4,13.4,0,0,0,0-26.8s8.5,5.9,8.8,12.8C554.7,569.1,545.5,573.9,545.5,573.9Z" transform="translate(-488.4 -490.8)"/><path class="cls-7" d="M584.9,588.7H495.8a7.1,7.1,0,0,1-7.1-7.1V498.2a7.1,7.1,0,0,1,7.1-7.1h89.1a7.1,7.1,0,0,1,7.1,7.1v83.4A7.1,7.1,0,0,1,584.9,588.7ZM495.8,494a4.2,4.2,0,0,0-4.2,4.2v83.4a4.2,4.2,0,0,0,4.2,4.2h89.1a4.2,4.2,0,0,0,4.2-4.2V498.2a4.2,4.2,0,0,0-4.2-4.2Z" transform="translate(-488.4 -490.8)"/><rect class="cls-7" x="59.9" y="13.4" width="31.6" height="2.25"/><rect class="cls-7" x="59.9" y="26.6" width="31.6" height="2.25"/><rect class="cls-7" x="59.9" y="40.1" width="31.6" height="2.25"/><path class="cls-7" d="M536.2,534.1H506.5a4.1,4.1,0,0,1-4.2-4.1V507a4.2,4.2,0,0,1,4.2-4.1h29.7a4.1,4.1,0,0,1,4.1,4.1v23A4.1,4.1,0,0,1,536.2,534.1Zm-29.7-28.3a1.2,1.2,0,0,0-1.2,1.2v23a1.2,1.2,0,0,0,1.2,1.2h29.7a1.2,1.2,0,0,0,1.2-1.2V507a1.3,1.3,0,0,0-1.2-1.2Z" transform="translate(-488.4 -490.8)"/><path class="cls-7" d="M544.4,576.8a16.3,16.3,0,1,1,16.4-16.3A16.3,16.3,0,0,1,544.4,576.8Zm0-29.6a13.4,13.4,0,1,0,13.4,13.3A13.4,13.4,0,0,0,544.4,547.2Z" transform="translate(-488.4 -490.8)"/><path class="cls-7" d="M540.3,566.6a2.3,2.3,0,0,1-1.7-.8h0l-2.1-2.8a1.6,1.6,0,0,1,.4-2.1,1.5,1.5,0,0,1,2,.4l1.5,2.1,9.4-7.4a1.4,1.4,0,0,1,2,.2,1.5,1.5,0,0,1-.2,2.1l-10.1,7.9A1.8,1.8,0,0,1,540.3,566.6Z" transform="translate(-488.4 -490.8)"/></svg>