<svg id="Layer_1" data-name="Layer 1" xmlns="http://www.w3.org/2000/svg" viewBox="0 0 100.9 99.9"><defs><style>.cls-1{fill:#64b5f6;}.cls-2{fill:#42a5f5;}.cls-3{fill:#eee;}.cls-4{fill:#e0e0e0;}.cls-5{fill:#ffb74d;}.cls-6{fill:#ffa726;}.cls-7{stroke:#000;stroke-miterlimit:10;stroke-width:0.5px;}</style></defs><polygon class="cls-1" points="1.7 19.5 99.3 18.1 99.3 3.2 86.3 0.3 3.1 1.6 1.7 19.5"/><path class="cls-2" d="M579.9,493.5s4.2,1.3,4.2,6.7v9.6h5.1V498.2S588.3,489.5,579.9,493.5Z" transform="translate(-489.9 -490.3)"/><rect class="cls-3" x="1.7" y="20.9" width="96.1" height="77.41"/><path class="cls-4" d="M584.1,511.2v64.5s.3,9.8-4.7,11.3h7.8l1.6-5.7V509.8Z" transform="translate(-489.9 -490.3)"/><rect class="cls-5" x="59.9" y="33.1" width="28.9" height="25.05"/><path class="cls-6" d="M569.9,524.4s4.3,1.3,4.3,6.7v17.2h4V529.1S578.4,520.4,569.9,524.4Z" transform="translate(-489.9 -490.3)"/><rect class="cls-5" x="15" y="74" width="10.2" height="8.82"/><path class="cls-6" d="M512,564.7a2.2,2.2,0,0,1,1.5,2.3v6.1h1.4v-6.8S515,563.2,512,564.7Z" transform="translate(-489.9 -490.3)"/><rect class="cls-5" x="35.4" y="73.9" width="10.2" height="8.82"/><path class="cls-6" d="M532.4,564.6a2.4,2.4,0,0,1,1.5,2.4v6h1.4v-6.7S535.3,563.2,532.4,564.6Z" transform="translate(-489.9 -490.3)"/><rect class="cls-5" x="55.9" y="74" width="10.2" height="8.82"/><path class="cls-6" d="M552.9,564.7a2.2,2.2,0,0,1,1.5,2.3v6.1h1.4v-6.8S555.9,563.2,552.9,564.7Z" transform="translate(-489.9 -490.3)"/><rect class="cls-5" x="76.2" y="74" width="10.2" height="8.82"/><path class="cls-6" d="M573.2,564.7a2.2,2.2,0,0,1,1.4,2.3v6.1h1.5v-6.8S576.1,563.2,573.2,564.7Z" transform="translate(-489.9 -490.3)"/><path class="cls-7" d="M583.6,590H497.1a7.1,7.1,0,0,1-7-7.2v-85a7.1,7.1,0,0,1,7-7.2h86.5a7.1,7.1,0,0,1,7,7.2v85A7.1,7.1,0,0,1,583.6,590Zm-86.5-96.5a4.2,4.2,0,0,0-4.1,4.3v85a4.1,4.1,0,0,0,4.1,4.2h86.5a4.1,4.1,0,0,0,4.1-4.2v-85a4.2,4.2,0,0,0-4.1-4.3Z" transform="translate(-489.9 -490.3)"/><rect class="cls-7" x="1.7" y="18.1" width="97.7" height="2.79"/><rect class="cls-7" x="14.3" y="33.1" width="35" height="2.12"/><rect class="cls-7" x="14.3" y="44.3" width="35" height="2.12"/><rect class="cls-7" x="14.3" y="55.3" width="35" height="2.12"/><path class="cls-7" d="M513.9,575.7h-6.5a3.9,3.9,0,0,1-3.9-3.8v-6.4a3.9,3.9,0,0,1,3.9-3.8h6.5a3.8,3.8,0,0,1,3.9,3.8v6.4A3.8,3.8,0,0,1,513.9,575.7Zm-6.5-11.3a1.1,1.1,0,0,0-1.1,1.1v6.4a1.1,1.1,0,0,0,1.1,1.1h6.5a1.1,1.1,0,0,0,1.2-1.1v-6.4a1.1,1.1,0,0,0-1.2-1.1Z" transform="translate(-489.9 -490.3)"/><path class="cls-7" d="M534.3,575.7h-6.5a3.9,3.9,0,0,1-3.9-3.8v-6.4a3.9,3.9,0,0,1,3.9-3.8h6.5a3.8,3.8,0,0,1,3.9,3.8v6.4A3.8,3.8,0,0,1,534.3,575.7Zm-6.5-11.3a1.1,1.1,0,0,0-1.1,1.1v6.4a1.1,1.1,0,0,0,1.1,1.1h6.5a1.1,1.1,0,0,0,1.1-1.1v-6.4a1.1,1.1,0,0,0-1.1-1.1Z" transform="translate(-489.9 -490.3)"/><path class="cls-7" d="M554.7,575.7h-6.5a3.9,3.9,0,0,1-3.9-3.8v-6.4a3.9,3.9,0,0,1,3.9-3.8h6.5a3.8,3.8,0,0,1,3.9,3.8v6.4A3.8,3.8,0,0,1,554.7,575.7Zm-6.5-11.3a1.1,1.1,0,0,0-1.1,1.1v6.4a1.1,1.1,0,0,0,1.1,1.1h6.5a1.1,1.1,0,0,0,1.1-1.1v-6.4a1.1,1.1,0,0,0-1.1-1.1Z" transform="translate(-489.9 -490.3)"/><path class="cls-7" d="M575.1,575.7h-6.5a3.8,3.8,0,0,1-3.9-3.8v-6.4a3.8,3.8,0,0,1,3.9-3.8h6.5a3.9,3.9,0,0,1,3.9,3.8v6.4A3.9,3.9,0,0,1,575.1,575.7Zm-6.5-11.3a1.1,1.1,0,0,0-1.1,1.1v6.4a1.1,1.1,0,0,0,1.1,1.1h6.5a1.1,1.1,0,0,0,1.1-1.1v-6.4a1.1,1.1,0,0,0-1.1-1.1Z" transform="translate(-489.9 -490.3)"/><path class="cls-7" d="M575.9,549.5H551.4a3.9,3.9,0,0,1-4-3.9V525.2a3.9,3.9,0,0,1,4-3.9h24.5a3.9,3.9,0,0,1,4,3.9v20.4A3.9,3.9,0,0,1,575.9,549.5ZM551.4,524a1.1,1.1,0,0,0-1.1,1.2v20.4a1.1,1.1,0,0,0,1.1,1.1h24.5a1.1,1.1,0,0,0,1.1-1.1V525.2a1.1,1.1,0,0,0-1.1-1.2Z" transform="translate(-489.9 -490.3)"/></svg>