<svg id="Layer_1" data-name="Layer 1" xmlns="http://www.w3.org/2000/svg" viewBox="0 0 98.4 101.5"><defs><style>.cls-1{fill:#ffccbc;}.cls-2{fill:#ffab91;}.cls-3{fill:#64b5f6;}.cls-4{fill:#42a5f5;}.cls-5{fill:#e0e0e0;}.cls-6{fill:#eee;}.cls-7{fill:#ffb74d;}.cls-8{fill:#ffa726;}.cls-9{stroke:#000;stroke-miterlimit:10;stroke-width:0.5px;}</style></defs><circle class="cls-1" cx="50.6" cy="18.6" r="17.7"/><path class="cls-2" d="M547.6,492.3s12.9,14.4,2.4,31.3C550,523.6,572.7,503.8,547.6,492.3Z" transform="translate(-491.1 -489.2)"/><path class="cls-3" d="M512.7,540.1s32-33.6,57.8,1.9Z" transform="translate(-491.1 -489.2)"/><path class="cls-4" d="M564.9,540.6s-6.6-12.1-20.3-15.2c0,0,18.7.7,26.4,15.4Z" transform="translate(-491.1 -489.2)"/><path class="cls-5" d="M577.2,588.2l-28.8-.6c-1.1,0-2-1.8-2.2-4.4l-2.9-34.8c-.3-3.4.8-6.6,2.2-6.6l40.2.4c1.4,0,3.6,3.4,3.3,6.8l-7.4,34.2C581.4,585.8,578.3,588.2,577.2,588.2Z" transform="translate(-491.1 -489.2)"/><path class="cls-6" d="M569.6,587.6H503.9a4.9,4.9,0,0,1-4.6-4.4l-6.1-34.8c-.6-3.4,1.6-6.6,4.7-6.6h78.2c3,0,5.3,3.2,4.7,6.6l-6.5,34.8A4.9,4.9,0,0,1,569.6,587.6Z" transform="translate(-491.1 -489.2)"/><circle class="cls-7" cx="50.4" cy="75.9" r="7.2"/><path class="cls-8" d="M541.9,571.7s3.3-1.9,3.3-7a6.9,6.9,0,0,0-4.4-6.5,7.4,7.4,0,0,1,6.5,6.8C547.7,569.8,541.9,571.7,541.9,571.7Z" transform="translate(-491.1 -489.2)"/><path class="cls-9" d="M576.4,590.4H504.3c-3,0-5.5-2.4-6.1-5.7L491.5,549a7.4,7.4,0,0,1,1.3-5.8,5.8,5.8,0,0,1,4.8-2.6h85.5a5.8,5.8,0,0,1,4.8,2.6,7.4,7.4,0,0,1,1.3,5.8l-6.7,35.7C581.9,588,579.4,590.4,576.4,590.4Zm-78.8-47.6a4,4,0,0,0-3.3,1.7,5.7,5.7,0,0,0-.9,4l6.7,35.8a4.5,4.5,0,0,0,4.2,3.9h72.1a4.5,4.5,0,0,0,4.2-3.9l6.7-35.8a5.7,5.7,0,0,0-.9-4,4,4,0,0,0-3.3-1.7Z" transform="translate(-491.1 -489.2)"/><path class="cls-9" d="M570.1,542.1a1,1,0,0,1-.9-.6h0a22.4,22.4,0,0,0-5.7-7.6c-5.5-5.1-12.6-7.6-21.2-7.7h-.1a32.9,32.9,0,0,0-21.5,7.4,26,26,0,0,0-6.2,7.4,1.1,1.1,0,0,1-1.3.4,1,1,0,0,1-.5-1.3,27.8,27.8,0,0,1,6.8-8,35.2,35.2,0,0,1,22.7-7.8h.1c11.4,0,18.6,4.5,22.6,8.2a25.7,25.7,0,0,1,6.1,8.3.9.9,0,0,1-.5,1.2Z" transform="translate(-491.1 -489.2)"/><path class="cls-9" d="M542.1,526.2a18.4,18.4,0,1,1,18.4-18.4A18.4,18.4,0,0,1,542.1,526.2Zm0-34.9a16.5,16.5,0,1,0,16.5,16.5A16.5,16.5,0,0,0,542.1,491.3Z" transform="translate(-491.1 -489.2)"/><path class="cls-9" d="M541.7,573.2a7.9,7.9,0,1,1,7.9-7.9A7.9,7.9,0,0,1,541.7,573.2Zm0-13.8a5.9,5.9,0,1,0,5.9,5.9A5.8,5.8,0,0,0,541.7,559.4Z" transform="translate(-491.1 -489.2)"/></svg>