<svg id="Layer_1" data-name="Layer 1" xmlns="http://www.w3.org/2000/svg" viewBox="0 0 44.3 39.66"><defs><style>.cls-1{fill:#fff;}</style></defs><path class="cls-1" d="M556.55,552.36H522.44a5.09,5.09,0,0,1-5.09-5.1h44.3A5.1,5.1,0,0,1,556.55,552.36Zm5.1-29.38v21.9h-44.3V523a3.31,3.31,0,0,1,3.31-3.31h37.68A3.31,3.31,0,0,1,561.65,523Zm-37.44,8.42a.75.75,0,0,0,.75.74h5.41a.74.74,0,0,0,.74-.74v-6a.75.75,0,0,0-.74-.75H525a.76.76,0,0,0-.75.75Zm7,3.89a.74.74,0,0,0-.74-.74h-5.42a.74.74,0,0,0-.74.74v5a.74.74,0,0,0,.74.74h5.42a.74.74,0,0,0,.74-.74Zm19.26,4.32a.86.86,0,0,0-.87-.86H534.73a.86.86,0,1,0,0,1.72H549.6A.86.86,0,0,0,550.47,539.61Zm5.18-3.64a.86.86,0,0,0-.86-.86H534.73a.86.86,0,0,0,0,1.72h20.06A.86.86,0,0,0,555.65,536Zm-20.92-4.38H549.6a.87.87,0,1,0,0-1.73H534.73a.87.87,0,0,0,0,1.73Zm20.92-5.51a.87.87,0,0,0-.86-.86H534.73a.86.86,0,1,0,0,1.72h20.06A.86.86,0,0,0,555.65,526.08ZM550,556.77h-2.63l-.92-2H532.73l-.92,2h-2.72a1.28,1.28,0,0,0,0,2.56H550a1.27,1.27,0,0,0,.9-.37,1.24,1.24,0,0,0,.38-.91A1.28,1.28,0,0,0,550,556.77Z" transform="translate(-517.35 -519.67)"/></svg>