<svg id="Layer_1" data-name="Layer 1" xmlns="http://www.w3.org/2000/svg" viewBox="0 0 44.43 39.66"><defs><style>.cls-1{fill:#fff;}</style></defs><path class="cls-1" d="M557.47,553.15H523.36a5.09,5.09,0,0,1-5.09-5.09h44.3A5.09,5.09,0,0,1,557.47,553.15Zm-12-22.85-5.75,5.76h0l-1,1a.34.34,0,0,1-.48,0l-2.63-2.63a.34.34,0,0,1,0-.48l.73-.73a.34.34,0,0,1,.48,0l1.41,1.41a.34.34,0,0,0,.48,0l5.51-5.51a.33.33,0,0,1,.47,0l.73.73A.33.33,0,0,1,545.44,530.3Zm13.94-9.83H521.7a3.31,3.31,0,0,0-3.31,3.31v21.91h44.3V523.78A3.31,3.31,0,0,0,559.38,520.47Zm-18.84,21.4a9.1,9.1,0,1,1,9.09-9.1A9.11,9.11,0,0,1,540.54,541.87Zm10.34,15.7h-2.63l-.92-2H533.65l-.92,2H530a1.28,1.28,0,0,0,0,2.56h20.87a1.28,1.28,0,0,0,0-2.56Z" transform="translate(-518.27 -520.47)"/></svg>