<svg id="Layer_1" data-name="Layer 1" xmlns="http://www.w3.org/2000/svg" viewBox="0 0 44.45 39.15"><defs><style>.cls-1{fill:#fff;}</style></defs><path class="cls-1" d="M561.73,553.76v4.07c0,.69-.79,1.25-1.75,1.25H518.75c-.81,0-1.48-.48-1.48-1.06v-4.26c0-.44.5-.79,1.11-.79h15a.28.28,0,0,1,.26.13l.75,1.56a.29.29,0,0,0,.26.13h9.84a.26.26,0,0,0,.25-.13l.77-1.56a.29.29,0,0,1,.26-.13h14.88C561.23,553,561.73,553.32,561.73,553.76Z" transform="translate(-517.27 -519.92)"/><path class="cls-1" d="M558.33,519.92H520.75a2,2,0,0,0-2,2v28.89h41.49V521.87A2,2,0,0,0,558.33,519.92ZM539.5,546.69A11.4,11.4,0,1,1,551,535.3,11.44,11.44,0,0,1,539.5,546.69Z" transform="translate(-517.27 -519.92)"/><path class="cls-1" d="M539.5,525.45a9.88,9.88,0,1,0,9.92,9.87A9.9,9.9,0,0,0,539.5,525.45Zm6.2,15.34,0,0-1.25-1.24a.34.34,0,0,0-.49,0l-.3.29a.35.35,0,0,0,0,.5l1.25,1.24h0a8.18,8.18,0,0,1-4.8,2,.07.07,0,0,0,0,0v-1.76a.36.36,0,0,0-.36-.35h-.42a.35.35,0,0,0-.35.35v1.76a.07.07,0,0,0,0,0,8.21,8.21,0,0,1-4.81-2h0l1.25-1.24a.35.35,0,0,0,0-.5l-.29-.29a.35.35,0,0,0-.5,0l-1.25,1.24,0,0a8.26,8.26,0,0,1-2.09-4.87h1.81a.35.35,0,0,0,.35-.35v-.42a.35.35,0,0,0-.35-.35h-1.83a8.34,8.34,0,0,1,2-4.87l0,0,1.25,1.25a.35.35,0,0,0,.5,0l.29-.3a.34.34,0,0,0,0-.49l-1.25-1.24s0,0-.06-.05a8.34,8.34,0,0,1,5-2.1.11.11,0,0,0,0,.05v1.77a.35.35,0,0,0,.35.34h.42a.35.35,0,0,0,.36-.34V527.1a.11.11,0,0,0,0-.05,8.26,8.26,0,0,1,5,2.1l-.06.05-1.25,1.24a.34.34,0,0,0,0,.49l.3.3a.35.35,0,0,0,.5,0l1.25-1.25s0,0,0,0a8.14,8.14,0,0,1,2,4.87H546a.36.36,0,0,0-.36.35v.42a.36.36,0,0,0,.36.35h1.8A8.08,8.08,0,0,1,545.7,540.79Z" transform="translate(-517.27 -519.92)"/><path class="cls-1" d="M543.83,535.29a.46.46,0,0,1-.46.46h-4.24v-4.93a.46.46,0,0,1,.46-.45.46.46,0,0,1,.46.45v4h3.32A.46.46,0,0,1,543.83,535.29Z" transform="translate(-517.27 -519.92)"/></svg>