<svg id="Layer_1" data-name="Layer 1" xmlns="http://www.w3.org/2000/svg" viewBox="0 0 44.91 41.61"><defs><style>.cls-1{fill:#39bfc9;}</style></defs><path class="cls-1" d="M551,545.78l4.24,2.25v-4.5a4.39,4.39,0,0,0-4.39-4.39H539.59a1.58,1.58,0,0,0-1.58,1.58V552a4.38,4.38,0,0,0,4.39,4.39h8.45a4.32,4.32,0,0,0,1.88-.42l-2.52-9.55A.55.55,0,0,1,551,545.78Zm-.15-26.29H542.4a4.38,4.38,0,0,0-4.39,4.38v11.28a1.58,1.58,0,0,0,1.58,1.58h11.26a4.38,4.38,0,0,0,4.39-4.39v-8.47A4.38,4.38,0,0,0,550.85,519.49Zm-17.16,19.65H522.42a4.4,4.4,0,0,0-4.39,4.39V552a4.39,4.39,0,0,0,4.39,4.39h8.46a4.38,4.38,0,0,0,4.38-4.39V540.72A1.58,1.58,0,0,0,533.69,539.14Zm-2.81-19.65h-8.46a4.39,4.39,0,0,0-4.39,4.38v8.47a4.39,4.39,0,0,0,4.39,4.39h11.27a1.57,1.57,0,0,0,1.57-1.58V523.87A4.38,4.38,0,0,0,530.88,519.49Z" transform="translate(-518.03 -519.49)"/><polygon class="cls-1" points="37.05 40.54 33.58 28.06 44.91 34.06 40.72 35.32 44.69 40 42.93 41.61 38.95 36.89 37.05 40.54"/></svg>