<svg id="Layer_1" data-name="Layer 1" xmlns="http://www.w3.org/2000/svg" viewBox="0 0 45.18 39.3"><defs><style>.cls-1{fill:#39bfc9;}</style></defs><path class="cls-1" d="M542.29,542.56h-2.23a6.19,6.19,0,0,0-6.18,6.19v3.53H520a2,2,0,0,1-2-2.24l1-8.36a4.22,4.22,0,0,1,4.19-3.72h3.24v2s-.2,1,.7,1.13a12.53,12.53,0,0,0,2.13,0l1.43,2,1.39-2,1.92,0a.87.87,0,0,0,.85-1.07c-.05-.63,0-1.51,0-2.15H538a4.24,4.24,0,0,1,4.19,3.7Z" transform="translate(-517.95 -520.65)"/><path class="cls-1" d="M530.61,520.65c5.58,0,6.46,5.41,6.4,7.57A9.05,9.05,0,0,0,538.6,533c.32.47,1.19,1-.46,1.72a13.91,13.91,0,0,1-4.91.5,1.54,1.54,0,0,0,.69,1.78l-3.31,3.85L527.29,537a1.54,1.54,0,0,0,.69-1.78s-3.25.22-4.9-.5-.79-1.25-.47-1.72a9.05,9.05,0,0,0,1.59-4.73C524.14,526.06,525,520.65,530.61,520.65Z" transform="translate(-517.95 -520.65)"/><path class="cls-1" d="M563.13,548.75v8.71a2.48,2.48,0,0,1-2.49,2.49H538.42a2.48,2.48,0,0,1-2.48-2.49v-8.71a4.12,4.12,0,0,1,4.12-4.13H543l5.26,8.73.47-5.66a2.22,2.22,0,0,1-.8-3.07h3.82a2.09,2.09,0,0,1-1.11,3.07l.52,5.66,4.69-8.73H559A4.13,4.13,0,0,1,563.13,548.75Z" transform="translate(-517.95 -520.65)"/><path class="cls-1" d="M549.54,542.82s-4.41.4-5.36-6.27c0,0-1.39.14-1.53-2.06s1.4-.8,1.4-.8-.2-3.93.27-5,2.86-2.6,5.22-2.47,2.69.47,3.09,1.4c0,0,2.06-.26,2.59,1.34a12.87,12.87,0,0,1,0,4.66s1.3-1.06,1.3.68-.77,2.45-1.17,2.32C555.35,536.62,554.62,543.15,549.54,542.82Z" transform="translate(-517.95 -520.65)"/></svg>