<svg id="Layer_1" data-name="Layer 1" xmlns="http://www.w3.org/2000/svg" viewBox="0 0 44.3 39.66"><defs><style>.cls-1{fill:#eb6554;}</style></defs><path class="cls-1" d="M557.54,553.15H523.43a5.09,5.09,0,0,1-5.1-5.09h44.3A5.09,5.09,0,0,1,557.54,553.15Zm5.09-29.37v21.9h-44.3v-21.9a3.32,3.32,0,0,1,3.31-3.32h37.68A3.32,3.32,0,0,1,562.63,523.78Zm-37.44,8.42a.75.75,0,0,0,.75.74h5.41a.75.75,0,0,0,.75-.74v-6a.75.75,0,0,0-.75-.74h-5.41a.75.75,0,0,0-.75.74Zm7,3.89a.74.74,0,0,0-.74-.74H526a.74.74,0,0,0-.74.74v5a.75.75,0,0,0,.74.75h5.42a.75.75,0,0,0,.74-.75Zm19.26,4.32a.86.86,0,0,0-.86-.86H535.71a.86.86,0,1,0,0,1.72h14.88A.87.87,0,0,0,551.45,540.41Zm5.18-3.64a.86.86,0,0,0-.86-.87H535.71a.87.87,0,0,0,0,1.73h20.06A.86.86,0,0,0,556.63,536.77Zm-20.92-4.39h14.88a.86.86,0,0,0,0-1.72H535.71a.86.86,0,0,0,0,1.72Zm20.92-5.5a.85.85,0,0,0-.86-.86H535.71a.86.86,0,1,0,0,1.72h20.06A.86.86,0,0,0,556.63,526.88Zm-5.69,30.69h-2.62l-.92-2H533.71l-.92,2h-2.72a1.27,1.27,0,0,0-.9.37,1.24,1.24,0,0,0-.38.91,1.28,1.28,0,0,0,1.28,1.28h20.87a1.3,1.3,0,0,0,.91-.38,1.28,1.28,0,0,0-.91-2.18Z" transform="translate(-518.33 -520.46)"/></svg>