<svg id="Layer_1" data-name="Layer 1" xmlns="http://www.w3.org/2000/svg" viewBox="0 0 45.43 41.17"><defs><style>.cls-1{fill:#f58b00;}</style></defs><path class="cls-1" d="M536.25,541.87,528,546.42l-.09.05a7.1,7.1,0,0,0-2.93,6.75h-2.2s-3.62.17-4.46-2.77a4.94,4.94,0,0,1,1.85-5.3l9.25-5.13s3.33,1.65,4.84,1.43a4.09,4.09,0,0,0,1.41-.13C535.88,541.51,536.06,541.69,536.25,541.87Zm3.15-20.4a8.14,8.14,0,0,0-5-1.76c-4.87,0-8.81,4.42-8.81,9.87s3.87,9.79,8.68,9.86a12.86,12.86,0,0,1-1.88-6.74A12.08,12.08,0,0,1,539.4,521.47Zm9.06,21.63s-3.7,1.69-5.19,1.48c-1.51.21-4.84-1.44-4.84-1.44l-9.26,5.13a5,5,0,0,0-1.84,5.3c.84,2.94,4.46,2.78,4.46,2.78l11.42,0h4.24a4.19,4.19,0,0,1-.93-2.63,4.24,4.24,0,0,1,4.23-4.24h1.4v-1.39a4.17,4.17,0,0,1,.81-2.47Zm-5.1-20.26c-4.86,0-8.8,4.42-8.8,9.86s3.94,9.87,8.8,9.87,8.8-4.42,8.8-9.87S548.22,522.84,543.36,522.84ZM551,555.61h10.86a1.76,1.76,0,0,0,1.77-1.76v-.32a1.77,1.77,0,0,0-1.77-1.77H551a1.76,1.76,0,0,0-1.76,1.77v.32A1.76,1.76,0,0,0,551,555.61Zm3.51-7.36v10.87a1.76,1.76,0,0,0,1.76,1.76h.32a1.76,1.76,0,0,0,1.77-1.76V548.25a1.76,1.76,0,0,0-1.77-1.76h-.32A1.76,1.76,0,0,0,554.46,548.25Z" transform="translate(-518.15 -519.71)"/></svg>