<svg id="Layer_1" data-name="Layer 1" xmlns="http://www.w3.org/2000/svg" viewBox="0 0 44.45 39.15"><defs><style>.cls-1{fill:#eb6554;}</style></defs><path class="cls-1" d="M562.71,554.56v4.06c0,.69-.79,1.25-1.75,1.25H519.73c-.81,0-1.47-.47-1.47-1v-4.26c0-.44.49-.79,1.11-.79h15a.28.28,0,0,1,.26.13l.76,1.56a.26.26,0,0,0,.25.13h9.84a.29.29,0,0,0,.26-.13l.77-1.57a.28.28,0,0,1,.25-.12H561.6C562.21,553.77,562.71,554.12,562.71,554.56Z" transform="translate(-518.26 -520.72)"/><path class="cls-1" d="M559.31,520.72H521.73a2,2,0,0,0-2,1.95v28.88h41.49V522.67A2,2,0,0,0,559.31,520.72Zm-18.83,26.77a11.4,11.4,0,1,1,11.45-11.4A11.44,11.44,0,0,1,540.48,547.49Z" transform="translate(-518.26 -520.72)"/><path class="cls-1" d="M540.48,526.24a9.88,9.88,0,1,0,9.92,9.88A9.91,9.91,0,0,0,540.48,526.24Zm6.2,15.35a.08.08,0,0,1,0,0l-1.25-1.24a.35.35,0,0,0-.5,0l-.3.29a.36.36,0,0,0,0,.49l1.26,1.25h0a8.25,8.25,0,0,1-4.8,1.95.09.09,0,0,0,0,0v-1.77a.35.35,0,0,0-.36-.34h-.41a.35.35,0,0,0-.36.34v1.77a.09.09,0,0,0,0,0,8.3,8.3,0,0,1-4.81-1.95h0l1.25-1.25a.34.34,0,0,0,0-.49l-.29-.29a.35.35,0,0,0-.5,0l-1.25,1.24,0,0a8.21,8.21,0,0,1-2.1-4.87h1.81a.36.36,0,0,0,.36-.36V536a.36.36,0,0,0-.36-.36h-1.83a8.34,8.34,0,0,1,2-4.87l0,0L535.5,532a.35.35,0,0,0,.5,0l.29-.29a.34.34,0,0,0,0-.49L535,530a.09.09,0,0,0-.06,0,8.34,8.34,0,0,1,5-2.1.07.07,0,0,0,0,0v1.76a.36.36,0,0,0,.36.35h.41a.36.36,0,0,0,.36-.35V527.9a.07.07,0,0,0,0,0,8.32,8.32,0,0,1,5,2.1l-.07,0-1.25,1.25a.34.34,0,0,0,0,.49l.3.29a.35.35,0,0,0,.5,0l1.25-1.24,0,0a8.14,8.14,0,0,1,2,4.87H547a.37.37,0,0,0-.36.36v.41a.36.36,0,0,0,.36.36h1.81A8.15,8.15,0,0,1,546.68,541.59Z" transform="translate(-518.26 -520.72)"/><path class="cls-1" d="M544.81,536.09a.46.46,0,0,1-.45.46h-4.25v-4.93a.47.47,0,0,1,.46-.46.46.46,0,0,1,.46.46v4h3.33A.46.46,0,0,1,544.81,536.09Z" transform="translate(-518.26 -520.72)"/></svg>