<svg id="Layer_1" data-name="Layer 1" xmlns="http://www.w3.org/2000/svg" viewBox="0 0 45.2 39.5"><defs><style>.cls-1{fill:#428e29;}</style></defs><path class="cls-1" d="M543.33,520.55a19.61,19.61,0,0,0-19.54,16.74h8.84v6.86h-8.69a19.76,19.76,0,1,0,19.39-23.59Zm6.83,11.76h-4.73a5.41,5.41,0,0,1,1.09,2.63h3.64v1.95h-3.61c-.3,2-1.81,4.14-6.69,4.57l7.48,9.69-1.54,1.19L537.08,541l.71-1.44H538c3.89,0,6.1-.91,6.6-2.71h-7.41v-1.95h7.41a3.38,3.38,0,0,0-2.59-2.63h-5.45v-1.95h13.65Z" transform="translate(-517.88 -520.55)"/><polygon class="cls-1" points="12.72 18.74 12.72 21.59 4.16 21.59 4.16 23.17 0 20.05 4.16 17.15 4.16 18.74 12.72 18.74"/></svg>