<svg id="Layer_1" data-name="Layer 1" xmlns="http://www.w3.org/2000/svg" viewBox="0 0 40.95 39.81"><defs><style>.cls-1{fill:#f58b00;}</style></defs><path class="cls-1" d="M559.33,552.89l-3.7-3.7a2,2,0,0,0-1.4-.58,2,2,0,0,0-1.41,3.38l2.37,2.37-2.37,2.36a2,2,0,0,0,0,2.81,2,2,0,0,0,2.81,0l3.7-3.7a2,2,0,0,0,.58-1.41v-.06A2,2,0,0,0,559.33,552.89Zm-8.19-.16-3.71-3.7a2,2,0,0,0-2.8,0,2,2,0,0,0,0,2.8L547,554.2l-2.36,2.36a2,2,0,0,0,2.8,2.81l3.71-3.7a2,2,0,0,0,.57-1.41v-.06A2,2,0,0,0,551.14,552.73ZM520,534.6v20.64a3.51,3.51,0,0,0,3.5,3.51H541a5.07,5.07,0,0,1,1.42-4.36l.19-.19-.19-.18a5.09,5.09,0,0,1,0-7.18,5.08,5.08,0,0,1,7.17,0l.62.62c.13-.15.26-.31.4-.45a5.08,5.08,0,0,1,7.19,0l3.14,3.14V534.6ZM550.46,559h0v0Zm7-34.63H552V522.2a1.81,1.81,0,0,0-.52-1.27,1.79,1.79,0,0,0-3,1.27v2.13H532.81v-2.25a1.78,1.78,0,0,0-.52-1.26,1.79,1.79,0,0,0-3,1.26v2.25h-5.73a3.51,3.51,0,0,0-3.5,3.51v4.1h41v-4.1A3.51,3.51,0,0,0,557.45,524.33Z" transform="translate(-520.01 -520.3)"/></svg>